<svg width="31" height="31" viewBox="0 0 31 31" fill="none" xmlns="http://www.w3.org/2000/svg">
<g clip-path="url(#clip0_287_54)">
<path d="M8.71868 25.1765C7.3726 25.1765 6.02653 24.0061 5.3535 23.5046C1.98832 21.1639 0.978761 20.3279 0.305725 19.8263V26.8484C0.305725 27.7716 1.05921 28.5203 1.98832 28.5203H15.449C16.3781 28.5203 17.1316 27.7716 17.1316 26.8484V19.8263C16.4586 20.3279 15.449 21.1639 12.0839 23.5046C11.4108 24.0061 10.0647 25.1765 8.71868 25.1765ZM15.449 15.1449H1.98832C1.05921 15.1449 0.305725 15.8936 0.305725 16.8169V17.6528C1.6518 18.656 1.48354 18.656 6.36305 22.167C6.86783 22.5014 7.87738 23.5046 8.71868 23.5046C9.55997 23.5046 10.5695 22.5014 11.0743 22.3342C15.9538 18.8232 15.7856 18.8232 17.1316 17.82V16.8169C17.1316 15.8936 16.3781 15.1449 15.449 15.1449ZM28.9098 10.1292H12.0839C11.1548 10.1292 10.4013 10.8779 10.4013 11.8011V13.473H15.449C17.1953 13.473 18.6349 14.8011 18.799 16.494L18.8142 16.4825V23.5046H28.9098C29.8389 23.5046 30.5923 22.7558 30.5923 21.8326V11.8011C30.5923 10.8779 29.8389 10.1292 28.9098 10.1292ZM27.2272 16.8169H23.862V13.473H27.2272V16.8169ZM8.71868 11.8011C8.71868 9.95726 10.2283 8.45723 12.0839 8.45723H23.862V3.44146C23.862 2.51824 23.1085 1.76953 22.1794 1.76953H5.3535C4.42439 1.76953 3.67091 2.51824 3.67091 3.44146V13.473H8.71868V11.8011Z" fill="white"/>
</g>
<defs>
<clipPath id="clip0_287_54">
<rect width="30.2866" height="30.0946" fill="white" transform="translate(0.305725 0.0976562)"/>
</clipPath>
</defs>
</svg>
