<svg width="31" height="31" viewBox="0 0 31 31" fill="none" xmlns="http://www.w3.org/2000/svg">
<g clip-path="url(#clip0_287_52)">
<path d="M29.4921 1.70147L23.3401 0.290786C22.6717 0.137961 21.9855 0.484755 21.7134 1.10781L18.874 7.69101C18.6256 8.26704 18.7912 8.94299 19.2822 9.33681L22.8669 12.2522C20.7374 16.7605 17.0166 20.5106 12.3849 22.6678L9.45087 19.1058C9.04863 18.6179 8.37428 18.4534 7.79457 18.7002L1.16937 21.5216C0.53643 21.7979 0.187424 22.4797 0.341223 23.1439L1.76091 29.2569C1.90879 29.8917 2.47667 30.3502 3.1451 30.3502C18.2943 30.3502 30.5924 18.1536 30.5924 3.07689C30.5924 2.41857 30.1369 1.84842 29.4921 1.70147Z" fill="white"/>
</g>
<defs>
<clipPath id="clip0_287_52">
<rect width="30.2866" height="30.0946" fill="white" transform="translate(0.305725 0.255859)"/>
</clipPath>
</defs>
</svg>
